# File created by Blade
# Date/Time:  Thu Sep 25 17:43:48 2014
# Frame Rate: 120.000 fps
#------------------------------------------------------
:FULLY-SPECIFIED
:DEGREES
280
root -37.639792 32.793565 -3.850038 -350.119684 7.907508 5.964060
Spine -2.411108 12.749166 7.967525
Head -9.815787 23.025047 -7.064365
LeftShoulder -13.048317 24.499813 2.247991
LeftArm 19.530436 23.791053 -74.575577
LeftForeArm -7.962226 -0.000000 19.662410
LeftHand -24.277216 -0.000000 2.831008
LeftHandThumb1 -26.253704 0.000000 33.147579
RightShoulder -14.409792 7.573026 -26.388715
RightArm -13.434827 -42.869787 88.672146
RightForeArm -9.529595 -0.000000 29.324529
RightHand -3.227629 0.000000 14.532048
RightHandThumb1 -24.326973 -0.000000 -32.862282
LeftUpLeg -15.187458 -1.075363 4.145725
LeftLeg 7.316843 -0.000000 -0.000000
LeftFoot -11.410104 23.658566 339.890218
LeftToeBase -3.402984 -0.000000 0.000000
RightUpLeg -3.046259 -27.256532 -2.834126
RightLeg 1.041635 -0.000000 -0.000000
RightFoot -11.143882 -13.405037 4.979209
RightToeBase 4.325024 -0.000000 -0.000000
281
root -37.545253 32.800346 -3.903307 -349.971628 7.733340 5.930173
Spine -2.423308 12.869888 7.918281
Head -9.733402 23.607786 -7.034100
LeftShoulder -13.067030 24.474988 2.235345
LeftArm 19.007314 23.545231 -75.480179
LeftForeArm -8.395785 -0.000000 19.170150
LeftHand -24.096570 -0.000000 2.646826
LeftHandThumb1 -26.253704 0.000000 33.147579
RightShoulder -14.368459 7.632346 -26.348143
RightArm -13.467738 -43.068435 88.876184
RightForeArm -9.399289 -0.000000 29.576685
RightHand -3.246224 0.000000 14.672651
RightHandThumb1 -24.326973 -0.000000 -32.862282
LeftUpLeg -15.268918 -1.254802 4.652926
LeftLeg 7.010605 -0.000000 -0.000000
LeftFoot -11.119038 23.552193 339.850652
LeftToeBase -3.472132 -0.000000 0.000000
RightUpLeg -3.312164 -27.341086 -2.849919
RightLeg 0.949629 -0.000000 -0.000000
RightFoot -10.922831 -13.303540 4.951123
RightToeBase 4.417911 -0.000000 -0.000000
282
root -37.458532 32.805964 -3.960409 -349.812981 7.615185 5.854808
Spine -2.438878 12.968003 7.874441
Head -9.704034 24.163145 -6.940207
LeftShoulder -13.054661 24.486923 2.214567
LeftArm 18.602336 23.299067 -76.316937
LeftForeArm -8.804735 0.000000 18.694702
LeftHand -24.070535 -0.000000 2.640551
LeftHandThumb1 -26.253704 0.000000 33.147579
RightShoulder -14.405941 7.677714 -26.263311
RightArm -13.461418 -43.394634 89.079599
RightForeArm -9.197457 -0.000000 29.786692
RightHand -3.232800 -0.000000 14.541321
RightHandThumb1 -24.326973 -0.000000 -32.862282
LeftUpLeg -15.533104 -1.038782 5.088029
LeftLeg 7.045398 -0.000000 -0.000000
LeftFoot -10.704597 23.306559 340.279515
LeftToeBase -3.771722 -0.000000 0.000000
RightUpLeg -3.660016 -27.611037 -2.784211
RightLeg 0.979996 -0.000000 -0.000000
RightFoot -10.708254 -13.028019 4.858311
RightToeBase 4.386495 -0.000000 -0.000000
283
root -37.340978 32.810614 -4.001154 -349.716234 7.279236 5.885521
Spine -2.423532 13.186052 7.749537
Head -9.519716 24.773266 -6.895478
LeftShoulder -13.044141 24.518061 2.150972
LeftArm 18.157965 23.129680 -77.086259
LeftForeArm -9.213231 -0.000000 18.248316
LeftHand -23.815965 -0.000000 2.393686
LeftHandThumb1 -26.253704 0.000000 33.147579
RightShoulder -14.369168 7.690989 -26.216776
RightArm -13.492559 -43.588170 89.346214
RightForeArm -9.051872 -0.000000 29.993555
RightHand -3.106911 0.000000 14.730507
RightHandThumb1 -24.326973 -0.000000 -32.862282
LeftUpLeg -15.534331 -0.842388 5.399880
LeftLeg 6.860788 -0.000000 -0.000000
LeftFoot -10.299614 23.168387 340.849504
LeftToeBase -4.050499 -0.000000 0.000000
RightUpLeg -3.902583 -27.441808 -2.969401
RightLeg 1.005675 -0.000000 -0.000000
RightFoot -10.524754 -12.992494 4.789770
RightToeBase 4.277091 -0.000000 -0.000000
284
root -37.227036 32.812038 -4.042353 -349.664621 6.980883 5.878167
Spine -2.319311 13.311130 7.678532
Head -9.497225 25.367543 -6.908194
LeftShoulder -13.047833 24.473227 2.086256
LeftArm 17.728976 23.430126 -77.697205
LeftForeArm -9.659108 -0.000000 17.910505
LeftHand -23.556387 -0.000000 2.532084
LeftHandThumb1 -26.253704 0.000000 33.147579
RightShoulder -14.324588 7.777819 -26.205629
RightArm -13.557637 -43.622852 89.701450
RightForeArm -8.905319 -0.000000 30.181276
RightHand -3.057478 -0.000000 14.851384
RightHandThumb1 -24.326973 -0.000000 -32.862282
LeftUpLeg -15.490676 -0.669726 5.769843
LeftLeg 6.657092 -0.000000 -0.000000
LeftFoot -9.891145 23.056782 341.140722
LeftToeBase -4.402049 -0.000000 0.000000
RightUpLeg -4.103374 -27.386870 -3.120686
RightLeg 1.040128 -0.000000 -0.000000
RightFoot -10.390509 -12.854884 4.794635
RightToeBase 4.304408 -0.000000 -0.000000
285
root -37.110137 32.811408 -4.086808 -349.595289 6.736064 5.900725
Spine -2.246804 13.432935 7.542169
Head -9.487632 25.897126 -6.873040
LeftShoulder -12.989909 24.405392 2.073720
LeftArm 17.362794 23.377477 -78.420691
LeftForeArm -10.048703 -0.000000 17.409014
LeftHand -23.285212 -0.000000 2.058121
LeftHandThumb1 -26.253704 0.000000 33.147579
RightShoulder -14.362950 7.783153 -26.172614
RightArm -13.554043 -43.725413 90.033381
RightForeArm -8.672015 -0.000000 30.383730
RightHand -3.054051 -0.000000 14.951129
RightHandThumb1 -24.326973 -0.000000 -32.862282
LeftUpLeg -15.494382 -0.553710 6.107106
LeftLeg 6.571290 -0.000000 -0.000000
LeftFoot -9.355211 22.907815 341.604752
LeftToeBase -5.084149 -0.000000 0.000000
RightUpLeg -4.312849 -27.429567 -3.288319
RightLeg 1.058524 -0.000000 -0.000000
RightFoot -10.311419 -12.709746 4.751797
RightToeBase 4.487474 -0.000000 -0.000000
286
root -36.990805 32.810926 -4.131802 -349.530778 6.489711 5.901797
Spine -2.167741 13.516016 7.449336
Head -9.480840 26.413147 -6.872626
LeftShoulder -12.931322 24.310564 2.043947
LeftArm 17.024458 23.384833 -79.117613
LeftForeArm -10.556425 -0.000000 16.910335
LeftHand -23.023496 0.000000 1.729430
LeftHandThumb1 -26.253704 0.000000 33.147579
RightShoulder -14.353042 7.861449 -26.173168
RightArm -13.670856 -43.664973 90.465471
RightForeArm -8.532666 -0.000000 30.587781
RightHand -2.934599 -0.000000 15.047322
RightHandThumb1 -24.326973 -0.000000 -32.862282
LeftUpLeg -15.496063 -0.343223 6.447810
LeftLeg 6.519718 -0.000000 -0.000000
LeftFoot -8.957305 22.710530 341.833656
LeftToeBase -4.962962 -0.000000 0.000000
RightUpLeg -4.497634 -27.446400 -3.447583
RightLeg 1.038524 -0.000000 -0.000000
RightFoot -10.162118 -12.552929 4.783502
RightToeBase 4.514390 -0.000000 -0.000000
287
root -36.868475 32.805567 -4.171171 -349.483972 6.212415 5.876005
Spine -2.099456 13.566881 7.359433
Head -9.454396 27.081560 -6.886010
LeftShoulder -12.972542 24.308502 1.974943
LeftArm 16.811353 23.448501 -79.725211
LeftForeArm -10.997209 0.000000 16.485121
LeftHand -22.792400 -0.000000 1.285067
LeftHandThumb1 -26.253704 0.000000 33.147579
RightShoulder -14.352457 7.850316 -26.149295
RightArm -13.639505 -43.714889 90.830730
RightForeArm -8.301848 -0.000000 30.799134
RightHand -2.873697 -0.000000 15.154251
RightHandThumb1 -24.326973 -0.000000 -32.862282
LeftUpLeg -15.355014 -0.392097 6.895781
LeftLeg 6.332226 -0.000000 -0.000000
LeftFoot -8.757050 22.475250 341.604296
LeftToeBase -4.367735 -0.000000 0.000000
RightUpLeg -4.696825 -27.502518 -3.587199
RightLeg 1.081853 -0.000000 -0.000000
RightFoot -10.018848 -12.351776 4.585978
RightToeBase 4.504761 -0.000000 -0.000000
288
root -36.752632 32.799424 -4.208918 -349.450179 5.956913 5.817863
Spine -2.030192 13.601388 7.266296
Head -9.448040 27.725539 -6.826178
LeftShoulder -12.948276 24.147359 1.962910
LeftArm 16.468451 23.415426 -80.384992
LeftForeArm -11.365775 -0.000000 16.028678
LeftHand -22.767860 -0.000000 0.802987
LeftHandThumb1 -26.253704 0.000000 33.147579
RightShoulder -14.344368 7.919677 -26.093660
RightArm -13.727469 -43.607007 91.296973
RightForeArm -8.163986 -0.000000 30.979721
RightHand -2.773928 -0.000000 15.428514
RightHandThumb1 -24.326973 -0.000000 -32.862282
LeftUpLeg -15.383792 0.239043 7.206595
LeftLeg 6.427451 -0.000000 -0.000000
LeftFoot -8.521276 22.098161 341.646857
LeftToeBase -4.006385 -0.000000 0.000000
RightUpLeg -4.848834 -27.580304 -3.695506
RightLeg 1.058581 -0.000000 -0.000000
RightFoot -9.862861 -12.043239 4.715776
RightToeBase 4.409431 -0.000000 -0.000000
289
root -36.628493 32.789926 -4.244691 -349.436096 5.701768 5.773337
Spine -1.951218 13.668064 7.168134
Head -9.395316 28.275040 -6.762771
LeftShoulder -12.914016 24.105627 1.936901
LeftArm 16.358980 23.576165 -80.881131
LeftForeArm -11.950513 -0.000000 15.565186
LeftHand -22.455972 0.000000 0.525106
LeftHandThumb1 -26.253704 0.000000 33.147579
RightShoulder -14.394842 7.873630 -26.040815
RightArm -13.719387 -43.597937 91.704751
RightForeArm -7.944054 0.000000 31.192919
RightHand -2.685935 -0.000000 15.482781
RightHandThumb1 -24.326973 -0.000000 -32.862282
LeftUpLeg -15.264744 0.552622 7.571539
LeftLeg 6.338603 -0.000000 -0.000000
LeftFoot -8.350946 22.094374 341.878301
LeftToeBase -3.579596 -0.000000 0.000000
RightUpLeg -4.983536 -27.608668 -3.850688
RightLeg 1.079928 -0.000000 -0.000000
RightFoot -9.801954 -11.807056 4.802468
RightToeBase 4.425722 -0.000000 -0.000000
290
root -36.500883 32.779305 -4.275698 -349.457295 5.469747 5.712841
Spine -1.852835 13.687320 7.104753
Head -9.346332 28.821884 -6.710861
LeftShoulder -12.830032 23.967179 1.934838
LeftArm 16.085370 23.571378 -81.475444
LeftForeArm -12.272885 -0.000000 15.222923
LeftHand -22.226079 -0.000000 -0.324215
LeftHandThumb1 -26.253704 0.000000 33.147579
RightShoulder -14.422587 7.813291 -25.968062
RightArm -13.710323 -43.606855 92.126012
RightForeArm -7.587961 -0.000000 31.419661
RightHand -2.742000 0.000000 15.452563
RightHandThumb1 -24.326973 -0.000000 -32.862282
LeftUpLeg -15.043986 0.520661 8.056453
LeftLeg 6.238991 -0.000000 -0.000000
LeftFoot -8.403870 21.992470 341.565489
LeftToeBase -3.942768 -0.000000 0.000000
RightUpLeg -5.059266 -27.670576 -4.017534
RightLeg 1.060468 -0.000000 -0.000000
RightFoot -9.685973 -11.554677 4.641165
RightToeBase 4.674954 -0.000000 -0.000000
